ffmpeg started on 2016-12-05 at 03:10:07
Report written to "Output/x264/results/ffmpeg/crowd_run_2160p50veryfast6000k.log"
Command line:
Tools/ffmpeg/ffmpeg -benchmark -y -i Input/y4m/crowd_run_2160p50.y4m -c:v libx264 -preset veryfast -b:v 6000k -an Output/x264/encoded/crowd_run_2160p50veryfast6000k.mkv
ffmpeg version N-82227-gdb23fde Copyright (c) 2000-2016 the FFmpeg developers
  built with gcc 5.4.0 (Ubuntu 5.4.0-6ubuntu1~16.04.2) 20160609
  configuration: --prefix=/home/jaroslav/ffmpeg_build --pkg-config-flags=--static --extra-cflags=-I/home/jaroslav/ffmpeg_build/include --extra-ldflags=-L/home/jaroslav/ffmpeg_build/lib --bindir=/home/jaroslav/bin --enable-gpl --enable-libass --enable-libfdk-aac --enable-libfreetype --enable-libmp3lame --enable-libopus --enable-libtheora --enable-libvorbis --enable-libvpx --enable-libx264 --enable-libx265 --enable-nvenc --enable-libmfx --enable-libxvid --enable-libgsm --enable-libopencore-amrnb --enable-version3 --enable-nonfree
  libavutil      55. 35.100 / 55. 35.100
  libavcodec     57. 66.101 / 57. 66.101
  libavformat    57. 57.100 / 57. 57.100
  libavdevice    57.  2.100 / 57.  2.100
  libavfilter     6. 66.100 /  6. 66.100
  libswscale      4.  3.100 /  4.  3.100
  libswresample   2.  4.100 /  2.  4.100
  libpostproc    54.  2.100 / 54.  2.100
Input #0, yuv4mpegpipe, from 'Input/y4m/crowd_run_2160p50.y4m':
  Duration: 00:00:10.00, start: 0.000000, bitrate: 4976642 kb/s
    Stream #0:0: Video: rawvideo (I420 / 0x30323449), yuv420p(progressive), 3840x2160, SAR 1:1 DAR 16:9, 50 fps, 50 tbr, 50 tbn, 50 tbc
[libx264 @ 0x2cf81c0] using SAR=1/1
[libx264 @ 0x2cf81c0] using cpu capabilities: MMX2 SSE2Fast SSSE3 SSE4.2 AVX FMA3 AVX2 LZCNT BMI2
[libx264 @ 0x2cf81c0] profile High, level 5.2
[libx264 @ 0x2cf81c0] 264 - core 148 - H.264/MPEG-4 AVC codec - Copyleft 2003-2016 - http://www.videolan.org/x264.html - options: cabac=1 ref=1 deblock=1:0:0 analyse=0x3:0x113 me=hex subme=2 psy=1 psy_rd=1.00:0.00 mixed_ref=0 me_range=16 chroma_me=1 trellis=0 8x8dct=1 cqm=0 deadzone=21,11 fast_pskip=1 chroma_qp_offset=0 threads=6 lookahead_threads=2 sliced_threads=0 nr=0 decimate=1 interlaced=0 bluray_compat=0 constrained_intra=0 bframes=3 b_pyramid=2 b_adapt=1 b_bias=0 direct=1 weightb=1 open_gop=0 weightp=1 keyint=250 keyint_min=25 scenecut=40 intra_refresh=0 rc_lookahead=10 rc=abr mbtree=1 bitrate=6000 ratetol=1.0 qcomp=0.60 qpmin=0 qpmax=69 qpstep=4 ip_ratio=1.40 aq=1:1.00
Output #0, matroska, to 'Output/x264/encoded/crowd_run_2160p50veryfast6000k.mkv':
  Metadata:
    encoder         : Lavf57.57.100
    Stream #0:0: Video: h264 (libx264) (H264 / 0x34363248), yuv420p, 3840x2160 [SAR 1:1 DAR 16:9], q=-1--1, 6000 kb/s, 50 fps, 1k tbn, 50 tbc
    Metadata:
      encoder         : Lavc57.66.101 libx264
    Side data:
      cpb: bitrate max/min/avg: 0/0/6000000 buffer size: 0 vbv_delay: -1
Stream mapping:
  Stream #0:0 -> #0:0 (rawvideo (native) -> h264 (libx264))
Press [q] to stop, [?] for help
frame=    8 fps=0.0 q=0.0 size=       0kB time=00:00:00.00 bitrate=N/A speed=   0x    frame=   19 fps= 18 q=0.0 size=       0kB time=00:00:00.00 bitrate=N/A speed=   0x    frame=   24 fps= 15 q=39.0 size=       1kB time=00:00:00.02 bitrate= 279.2kbits/s speed=0.0133x    frame=   37 fps= 18 q=51.0 size=       1kB time=00:00:00.28 bitrate=  20.9kbits/s speed=0.134x    frame=   51 fps= 20 q=51.0 size=       1kB time=00:00:00.56 bitrate=  10.5kbits/s speed=0.215x    frame=   66 fps= 21 q=50.0 size=       1kB time=00:00:00.86 bitrate=   6.8kbits/s speed=0.274x    frame=   81 fps= 22 q=50.0 size=       1kB time=00:00:01.16 bitrate=   5.1kbits/s speed=0.316x    frame=   87 fps= 21 q=50.0 size=       1kB time=00:00:01.28 bitrate=   4.6kbits/s speed=0.304x    frame=  103 fps= 22 q=49.0 size=       1kB time=00:00:01.60 bitrate=   3.7kbits/s speed=0.337x    frame=  118 fps= 22 q=49.0 size=       1kB time=00:00:01.90 bitrate=   3.1kbits/s speed=0.361x    frame=  132 fps= 23 q=49.0 size=       1kB time=00:00:02.18 bitrate=   2.7kbits/s speed=0.378x    frame=  143 fps= 22 q=49.0 size=       1kB time=00:00:02.40 bitrate=   2.4kbits/s speed=0.368x    frame=  150 fps= 21 q=48.0 size=       1kB time=00:00:02.54 bitrate=   2.3kbits/s speed=0.36x    frame=  157 fps= 21 q=48.0 size=       1kB time=00:00:02.68 bitrate=   2.2kbits/s speed=0.354x    frame=  171 fps= 21 q=48.0 size=       1kB time=00:00:02.96 bitrate=   2.0kbits/s speed=0.365x    frame=  182 fps= 21 q=48.0 size=       1kB time=00:00:03.18 bitrate=   1.8kbits/s speed=0.366x    frame=  194 fps= 21 q=48.0 size=       1kB time=00:00:03.42 bitrate=   1.7kbits/s speed=0.372x    frame=  209 fps= 21 q=48.0 size=       1kB time=00:00:03.72 bitrate=   1.6kbits/s speed=0.382x    frame=  223 fps= 22 q=48.0 size=       1kB time=00:00:04.00 bitrate=   1.5kbits/s speed=0.39x    frame=  237 fps= 22 q=48.0 size=       1kB time=00:00:04.28 bitrate=   1.4kbits/s speed=0.398x    frame=  250 fps= 22 q=48.0 size=       1kB time=00:00:04.54 bitrate=   1.3kbits/s speed=0.403x    frame=  264 fps= 22 q=48.0 size=       1kB time=00:00:04.82 bitrate=   1.2kbits/s speed=0.41x    frame=  273 fps= 22 q=48.0 size=    3699kB time=00:00:05.00 bitrate=6059.6kbits/s speed=0.398x    frame=  284 fps= 21 q=48.0 size=    3699kB time=00:00:05.22 bitrate=5804.3kbits/s speed=0.393x    frame=  298 fps= 22 q=48.0 size=    3699kB time=00:00:05.50 bitrate=5508.9kbits/s speed=0.399x    frame=  312 fps= 22 q=48.0 size=    3699kB time=00:00:05.78 bitrate=5242.1kbits/s speed=0.404x    frame=  327 fps= 22 q=48.0 size=    3699kB time=00:00:06.08 bitrate=4983.4kbits/s speed=0.41x    frame=  335 fps= 22 q=48.0 size=    3699kB time=00:00:06.24 bitrate=4855.7kbits/s speed=0.404x    frame=  348 fps= 22 q=48.0 size=    3699kB time=00:00:06.50 bitrate=4661.5kbits/s speed=0.407x    frame=  363 fps= 22 q=48.0 size=    3699kB time=00:00:06.80 bitrate=4455.9kbits/s speed=0.412x    frame=  376 fps= 22 q=48.0 size=    3699kB time=00:00:07.06 bitrate=4291.8kbits/s speed=0.415x    frame=  389 fps= 22 q=48.0 size=    3699kB time=00:00:07.32 bitrate=4139.4kbits/s speed=0.418x    frame=  403 fps= 22 q=48.0 size=    3699kB time=00:00:07.60 bitrate=3986.9kbits/s speed=0.422x    frame=  412 fps= 22 q=49.0 size=    3699kB time=00:00:07.78 bitrate=3894.7kbits/s speed=0.42x    frame=  417 fps= 22 q=49.0 size=    3699kB time=00:00:07.88 bitrate=3845.2kbits/s speed=0.414x    frame=  424 fps= 22 q=49.0 size=    3699kB time=00:00:08.02 bitrate=3778.1kbits/s speed=0.409x    frame=  431 fps= 21 q=49.0 size=    3699kB time=00:00:08.16 bitrate=3713.3kbits/s speed=0.404x    frame=  442 fps= 21 q=49.0 size=    3699kB time=00:00:08.38 bitrate=3615.8kbits/s speed=0.401x    frame=  448 fps= 21 q=49.0 size=    3699kB time=00:00:08.50 bitrate=3564.8kbits/s speed=0.392x    frame=  457 fps= 20 q=49.0 size=    3699kB time=00:00:08.68 bitrate=3490.9kbits/s speed=0.389x    frame=  472 fps= 21 q=49.0 size=    3699kB time=00:00:08.98 bitrate=3374.3kbits/s speed=0.392x    frame=  486 fps= 21 q=49.0 size=    3699kB time=00:00:09.26 bitrate=3272.2kbits/s speed=0.395x    frame=  497 fps= 21 q=49.0 size=    3699kB time=00:00:09.48 bitrate=3196.3kbits/s speed=0.395x    frame=  500 fps= 20 q=-1.0 Lsize=    7592kB time=00:00:09.94 bitrate=6256.2kbits/s speed=0.406x    
video:7588kB audio:0kB subtitle:0kB other streams:0kB global headers:0kB muxing overhead: 0.057249%
bench: utime=61.076s
bench: maxrss=1085788kB
[libx264 @ 0x2cf81c0] frame I:2     Avg QP:38.80  size:193934
[libx264 @ 0x2cf81c0] frame P:126   Avg QP:47.38  size: 32298
[libx264 @ 0x2cf81c0] frame B:372   Avg QP:49.48  size:  8902
[libx264 @ 0x2cf81c0] consecutive B-frames:  0.8%  0.0%  0.0% 99.2%
[libx264 @ 0x2cf81c0] mb I  I16..4: 29.8% 61.8%  8.4%
[libx264 @ 0x2cf81c0] mb P  I16..4:  9.3% 11.1%  0.0%  P16..4: 12.4%  2.5%  0.6%  0.0%  0.0%    skip:64.0%
[libx264 @ 0x2cf81c0] mb B  I16..4:  0.9%  0.4%  0.0%  B16..8:  8.1%  0.8%  0.0%  direct: 3.0%  skip:86.8%  L0:44.8% L1:54.4% BI: 0.8%
[libx264 @ 0x2cf81c0] final ratefactor: 40.60
[libx264 @ 0x2cf81c0] 8x8 transform intra:51.5% inter:53.6%
[libx264 @ 0x2cf81c0] coded y,uvDC,uvAC intra: 14.1% 46.6% 9.5% inter: 0.2% 4.8% 0.0%
[libx264 @ 0x2cf81c0] i16 v,h,dc,p: 51% 26% 16%  8%
[libx264 @ 0x2cf81c0] i8 v,h,dc,ddl,ddr,vr,hd,vl,hu: 15% 11% 53%  4%  3%  4%  3%  4%  3%
[libx264 @ 0x2cf81c0] i4 v,h,dc,ddl,ddr,vr,hd,vl,hu: 22% 17% 11%  9%  9%  9%  8%  8%  7%
[libx264 @ 0x2cf81c0] i8c dc,h,v,p: 83%  6% 10%  1%
[libx264 @ 0x2cf81c0] Weighted P-Frames: Y:1.6% UV:0.0%
[libx264 @ 0x2cf81c0] kb/s:6215.15
